<mxfile host="app.diagrams.net" modified="2020-09-25T01:55:51.844Z" agent="5.0 (Windows NT 10.0; Win64; x64) AppleWebKit/537.36 (KHTML, like Gecko) Chrome/85.0.4183.121 Safari/537.36" etag="NSsgfZwFbpznvD2IvWKP" version="13.7.3" type="github">
  <diagram id="F8oWOpNEr45UN_NQ9jit" name="Page-1">
    <mxGraphModel dx="868" dy="450" grid="1" gridSize="10" guides="1" tooltips="1" connect="1" arrows="1" fold="1" page="1" pageScale="1" pageWidth="827" pageHeight="1169" math="0" shadow="0">
      <root>
        <mxCell id="0" />
        <mxCell id="1" parent="0" />
        <mxCell id="I9IyNeRwOy2HTz5-5BN5-2" style="edgeStyle=orthogonalEdgeStyle;rounded=0;orthogonalLoop=1;jettySize=auto;html=1;" edge="1" parent="1" source="I9IyNeRwOy2HTz5-5BN5-1" target="I9IyNeRwOy2HTz5-5BN5-3">
          <mxGeometry relative="1" as="geometry">
            <mxPoint x="500" y="70" as="targetPoint" />
          </mxGeometry>
        </mxCell>
        <mxCell id="I9IyNeRwOy2HTz5-5BN5-4" style="edgeStyle=orthogonalEdgeStyle;rounded=0;orthogonalLoop=1;jettySize=auto;html=1;" edge="1" parent="1" source="I9IyNeRwOy2HTz5-5BN5-1" target="I9IyNeRwOy2HTz5-5BN5-5">
          <mxGeometry relative="1" as="geometry">
            <mxPoint x="250" y="190" as="targetPoint" />
          </mxGeometry>
        </mxCell>
        <mxCell id="I9IyNeRwOy2HTz5-5BN5-1" value="Setup" style="rounded=1;whiteSpace=wrap;html=1;" vertex="1" parent="1">
          <mxGeometry x="190" y="40" width="120" height="60" as="geometry" />
        </mxCell>
        <mxCell id="I9IyNeRwOy2HTz5-5BN5-3" value="Definir 2 leds y 2 pulsadores" style="rounded=1;whiteSpace=wrap;html=1;" vertex="1" parent="1">
          <mxGeometry x="490" y="40" width="120" height="60" as="geometry" />
        </mxCell>
        <mxCell id="I9IyNeRwOy2HTz5-5BN5-6" style="edgeStyle=orthogonalEdgeStyle;rounded=0;orthogonalLoop=1;jettySize=auto;html=1;" edge="1" parent="1" source="I9IyNeRwOy2HTz5-5BN5-5">
          <mxGeometry relative="1" as="geometry">
            <mxPoint x="250" y="330" as="targetPoint" />
          </mxGeometry>
        </mxCell>
        <mxCell id="I9IyNeRwOy2HTz5-5BN5-5" value="Loop" style="rounded=1;whiteSpace=wrap;html=1;" vertex="1" parent="1">
          <mxGeometry x="190" y="180" width="120" height="60" as="geometry" />
        </mxCell>
        <mxCell id="I9IyNeRwOy2HTz5-5BN5-8" style="edgeStyle=orthogonalEdgeStyle;rounded=0;orthogonalLoop=1;jettySize=auto;html=1;" edge="1" parent="1" source="I9IyNeRwOy2HTz5-5BN5-7">
          <mxGeometry relative="1" as="geometry">
            <mxPoint x="480" y="360" as="targetPoint" />
          </mxGeometry>
        </mxCell>
        <mxCell id="I9IyNeRwOy2HTz5-5BN5-15" style="edgeStyle=orthogonalEdgeStyle;rounded=0;orthogonalLoop=1;jettySize=auto;html=1;" edge="1" parent="1" source="I9IyNeRwOy2HTz5-5BN5-7" target="I9IyNeRwOy2HTz5-5BN5-10">
          <mxGeometry relative="1" as="geometry" />
        </mxCell>
        <mxCell id="I9IyNeRwOy2HTz5-5BN5-7" value="Led&amp;nbsp; 1 apagado" style="rounded=1;whiteSpace=wrap;html=1;" vertex="1" parent="1">
          <mxGeometry x="190" y="330" width="120" height="60" as="geometry" />
        </mxCell>
        <mxCell id="I9IyNeRwOy2HTz5-5BN5-9" value="Led 2 apagado" style="rounded=1;whiteSpace=wrap;html=1;" vertex="1" parent="1">
          <mxGeometry x="480" y="330" width="120" height="60" as="geometry" />
        </mxCell>
        <mxCell id="I9IyNeRwOy2HTz5-5BN5-12" style="edgeStyle=orthogonalEdgeStyle;rounded=0;orthogonalLoop=1;jettySize=auto;html=1;entryX=0;entryY=0.5;entryDx=0;entryDy=0;" edge="1" parent="1" source="I9IyNeRwOy2HTz5-5BN5-10" target="I9IyNeRwOy2HTz5-5BN5-11">
          <mxGeometry relative="1" as="geometry" />
        </mxCell>
        <mxCell id="I9IyNeRwOy2HTz5-5BN5-16" style="edgeStyle=orthogonalEdgeStyle;rounded=0;orthogonalLoop=1;jettySize=auto;html=1;entryX=0.5;entryY=0;entryDx=0;entryDy=0;" edge="1" parent="1" source="I9IyNeRwOy2HTz5-5BN5-10" target="I9IyNeRwOy2HTz5-5BN5-13">
          <mxGeometry relative="1" as="geometry" />
        </mxCell>
        <mxCell id="I9IyNeRwOy2HTz5-5BN5-10" value="Mantener el pulsador 1" style="rounded=1;whiteSpace=wrap;html=1;" vertex="1" parent="1">
          <mxGeometry x="190" y="450" width="120" height="60" as="geometry" />
        </mxCell>
        <mxCell id="I9IyNeRwOy2HTz5-5BN5-11" value="Encender 2 leds" style="rounded=1;whiteSpace=wrap;html=1;" vertex="1" parent="1">
          <mxGeometry x="480" y="450" width="120" height="60" as="geometry" />
        </mxCell>
        <mxCell id="I9IyNeRwOy2HTz5-5BN5-17" style="edgeStyle=orthogonalEdgeStyle;rounded=0;orthogonalLoop=1;jettySize=auto;html=1;" edge="1" parent="1" source="I9IyNeRwOy2HTz5-5BN5-13" target="I9IyNeRwOy2HTz5-5BN5-14">
          <mxGeometry relative="1" as="geometry" />
        </mxCell>
        <mxCell id="I9IyNeRwOy2HTz5-5BN5-18" style="edgeStyle=orthogonalEdgeStyle;rounded=0;orthogonalLoop=1;jettySize=auto;html=1;entryX=0;entryY=0.5;entryDx=0;entryDy=0;" edge="1" parent="1" source="I9IyNeRwOy2HTz5-5BN5-13" target="I9IyNeRwOy2HTz5-5BN5-5">
          <mxGeometry relative="1" as="geometry">
            <Array as="points">
              <mxPoint x="250" y="640" />
              <mxPoint x="170" y="640" />
              <mxPoint x="170" y="210" />
            </Array>
          </mxGeometry>
        </mxCell>
        <mxCell id="I9IyNeRwOy2HTz5-5BN5-13" value="Mantener el pulsador 2" style="rounded=1;whiteSpace=wrap;html=1;" vertex="1" parent="1">
          <mxGeometry x="190" y="570" width="120" height="60" as="geometry" />
        </mxCell>
        <mxCell id="I9IyNeRwOy2HTz5-5BN5-14" value="Encender led 2" style="rounded=1;whiteSpace=wrap;html=1;" vertex="1" parent="1">
          <mxGeometry x="480" y="570" width="120" height="60" as="geometry" />
        </mxCell>
      </root>
    </mxGraphModel>
  </diagram>
</mxfile>
